<svg xmlns="http://www.w3.org/2000/svg" width="375" viewBox="0 0 375 375" height="375" version="1.0"><defs><clipPath id="a"><path d="M 122 72.933594 L 253 72.933594 L 253 222.933594 L 122 222.933594 Z M 122 72.933594"/></clipPath></defs><g clip-path="url(#a)"><path fill="#8C52FF" d="M 192.992188 119.742188 C 194.765625 120.335938 197.726562 120.925781 200.09375 120.925781 C 202.460938 120.925781 203.644531 117.371094 203.644531 117.371094 C 197.726562 114.410156 192.992188 119.742188 192.992188 119.742188 Z M 220.8125 97.820312 C 215.484375 96.632812 211.34375 100.78125 211.34375 100.78125 C 211.933594 102.558594 217.855469 101.375 217.855469 101.375 C 217.261719 102.558594 217.855469 107.890625 217.855469 107.890625 C 223.183594 102.558594 220.8125 97.820312 220.8125 97.820312 Z M 213.117188 120.335938 C 213.117188 113.816406 201.277344 100.78125 198.320312 100.78125 C 195.558594 100.78125 188.417969 109.671875 187.472656 110.867188 L 187.472656 111.003906 C 187.472656 111.003906 187.453125 110.980469 187.417969 110.933594 C 187.386719 110.980469 187.367188 111.003906 187.367188 111.003906 L 187.367188 110.867188 C 186.417969 109.671875 179.28125 100.78125 176.519531 100.78125 C 173.5625 100.78125 161.722656 113.816406 161.722656 120.335938 C 161.722656 126.851562 167.640625 138.109375 171.195312 138.109375 C 171.195312 138.109375 176.558594 134.203125 177.992188 132.597656 C 176.867188 134.117188 173.054688 139.378906 173.5625 139.886719 C 174.035156 140.363281 178.34375 143.90625 180.316406 144.65625 C 178.960938 144.597656 176.25 144.125 172.96875 141.664062 C 172.96875 141.664062 171.195312 142.257812 171.785156 144.625 C 171.785156 144.625 175.335938 148.179688 179.480469 146.996094 C 179.480469 146.996094 177.113281 149.367188 172.375 146.996094 C 172.375 146.996094 178.886719 155.292969 185.992188 145.8125 C 188.953125 133.367188 180.664062 135.738281 180.664062 135.738281 L 180.664062 129.8125 C 180.664062 129.8125 183.570312 135.042969 187.367188 133.699219 L 187.367188 133.664062 C 187.382812 133.671875 187.402344 133.675781 187.417969 133.683594 C 187.4375 133.675781 187.453125 133.671875 187.472656 133.664062 L 187.472656 133.699219 C 191.269531 135.042969 194.175781 129.8125 194.175781 129.8125 L 194.175781 135.738281 C 194.175781 135.738281 185.886719 133.367188 188.847656 145.8125 C 195.949219 155.292969 202.460938 146.996094 202.460938 146.996094 C 197.726562 149.367188 195.359375 146.996094 195.359375 146.996094 C 199.503906 148.179688 203.054688 144.625 203.054688 144.625 C 203.644531 142.257812 201.871094 141.664062 201.871094 141.664062 C 198.589844 144.125 195.878906 144.597656 194.523438 144.65625 C 196.496094 143.90625 200.800781 140.363281 201.277344 139.886719 C 201.785156 139.378906 197.96875 134.117188 196.847656 132.597656 C 198.28125 134.203125 203.644531 138.109375 203.644531 138.109375 C 207.199219 138.109375 213.117188 126.851562 213.117188 120.335938 Z M 195.949219 152.328125 C 191.535156 152.328125 187.890625 148.507812 187.417969 147.992188 C 186.949219 148.507812 183.304688 152.328125 178.886719 152.328125 C 174.152344 152.328125 178.296875 160.625 179.480469 160.625 C 180.65625 160.625 182.417969 162.371094 187.367188 159.207031 L 187.367188 159.140625 C 187.382812 159.152344 187.402344 159.164062 187.417969 159.175781 C 187.4375 159.164062 187.453125 159.152344 187.472656 159.140625 L 187.472656 159.207031 C 192.421875 162.371094 194.183594 160.625 195.359375 160.625 C 196.542969 160.625 200.6875 152.328125 195.949219 152.328125 Z M 156.984375 101.375 C 156.984375 101.375 162.90625 102.558594 163.496094 100.78125 C 163.496094 100.78125 159.355469 96.632812 154.023438 97.820312 C 154.023438 97.820312 151.65625 102.558594 156.984375 107.890625 C 156.984375 107.890625 157.578125 102.558594 156.984375 101.375 Z M 252.78125 142.847656 C 252.78125 142.847656 243.308594 129.8125 220.222656 129.21875 C 220.222656 129.21875 261.660156 139.886719 244.492188 175.4375 C 244.492188 175.4375 242.714844 155.882812 221.40625 142.847656 C 221.40625 142.847656 251.003906 172.472656 226.734375 192.617188 C 226.734375 192.617188 227.917969 163.585938 212.527344 146.402344 C 212.527344 146.402344 235.019531 190.25 208.382812 210.984375 C 208.382812 210.984375 216.078125 192.027344 207.199219 168.324219 C 207.199219 168.324219 211.34375 205.0625 198.320312 216.910156 C 198.320312 216.910156 204.238281 202.691406 200.6875 175.4375 C 200.6875 175.4375 200.097656 210.984375 187.472656 222.835938 L 187.472656 222.933594 C 187.453125 222.917969 187.4375 222.902344 187.417969 222.882812 C 187.402344 222.902344 187.382812 222.917969 187.367188 222.933594 L 187.367188 222.835938 C 174.742188 210.984375 174.152344 175.4375 174.152344 175.4375 C 170.601562 202.691406 176.519531 216.910156 176.519531 216.910156 C 163.496094 205.0625 167.640625 168.324219 167.640625 168.324219 C 158.761719 192.027344 166.457031 210.984375 166.457031 210.984375 C 139.816406 190.25 162.3125 146.402344 162.3125 146.402344 C 146.921875 163.585938 148.105469 192.617188 148.105469 192.617188 C 123.835938 172.472656 153.433594 142.847656 153.433594 142.847656 C 132.121094 155.882812 130.347656 175.4375 130.347656 175.4375 C 113.179688 139.886719 154.617188 129.21875 154.617188 129.21875 C 131.53125 129.8125 122.058594 142.847656 122.058594 142.847656 C 123.835938 125.667969 151.65625 120.925781 151.65625 120.925781 C 135.675781 117.371094 122.058594 126.257812 122.058594 126.257812 C 133.304688 109.074219 152.839844 109.667969 152.839844 109.667969 C 148.105469 106.113281 126.203125 109.667969 126.203125 109.667969 L 134.488281 104.929688 C 135.675781 104.335938 151.066406 103.742188 151.066406 103.742188 C 149.882812 101.375 136.859375 101.375 136.859375 101.375 L 134.488281 96.632812 C 138.042969 95.449219 151.066406 98.410156 151.066406 98.410156 C 150.472656 96.632812 139.226562 93.671875 139.226562 93.671875 C 162.3125 78.265625 180.074219 99.003906 180.074219 99.003906 C 173.5625 84.191406 153.433594 81.820312 153.433594 81.820312 C 159.355469 75.304688 167.640625 74.117188 167.640625 74.117188 C 177.703125 78.859375 185.402344 103.742188 185.402344 103.742188 C 184.214844 85.96875 173.5625 72.933594 173.5625 72.933594 C 176.96875 72.933594 186.632812 74.839844 187.417969 74.996094 C 188.207031 74.839844 197.871094 72.933594 201.277344 72.933594 C 201.277344 72.933594 190.621094 85.96875 189.4375 103.742188 C 189.4375 103.742188 197.136719 78.859375 207.199219 74.117188 C 207.199219 74.117188 215.484375 75.304688 221.40625 81.820312 C 221.40625 81.820312 201.277344 84.191406 194.765625 99.003906 C 194.765625 99.003906 212.527344 78.265625 235.613281 93.671875 C 235.613281 93.671875 224.367188 96.632812 223.773438 98.410156 C 223.773438 98.410156 236.796875 95.449219 240.347656 96.632812 L 237.980469 101.375 C 237.980469 101.375 224.957031 101.375 223.773438 103.742188 C 223.773438 103.742188 239.164062 104.335938 240.347656 104.929688 L 248.636719 109.667969 C 248.636719 109.667969 226.734375 106.113281 222 109.667969 C 222 109.667969 241.53125 109.074219 252.78125 126.257812 C 252.78125 126.257812 239.164062 117.371094 223.183594 120.925781 C 223.183594 120.925781 251.003906 125.667969 252.78125 142.847656 Z M 181.847656 119.742188 C 180.074219 120.335938 177.113281 120.925781 174.746094 120.925781 C 172.375 120.925781 171.195312 117.371094 171.195312 117.371094 C 177.113281 114.410156 181.847656 119.742188 181.847656 119.742188"/></g></svg>